<svg width="0" height="0" class="hidden">
  <symbol fill="none" xmlns="http://www.w3.org/2000/svg" viewBox="0 0 120 120" id="php">
    <g clip-path="url(#clip0)">
      <path d="M60.001 24.375c-16.348 0-31.17 3.862-42.048 10.24C7.075 40.99 0 50.051 0 60.324 0 70.599 7.074 79.66 17.952 86.037 28.83 92.415 43.653 96.277 60 96.277c16.348 0 31.17-3.862 42.048-10.24C112.926 79.661 120 70.6 120 60.326s-7.074-19.335-17.952-25.712C91.171 28.237 76.348 24.375 60 24.375zm0 3.75c15.754 0 29.992 3.767 40.151 9.723 10.16 5.956 16.099 13.932 16.099 22.478 0 8.546-5.939 16.522-16.099 22.478-10.16 5.956-24.397 9.723-40.151 9.723-15.754 0-29.992-3.767-40.151-9.723-10.16-5.956-16.1-13.932-16.1-22.478 0-8.546 5.939-16.522 16.099-22.478C30.01 31.892 44.247 28.125 60 28.125zm-11.22 6.244c-.108 0-.214.01-.32.03a90.577 90.577 0 00-7.92 1.585 1.875 1.875 0 10.904 3.636 86.848 86.848 0 017.595-1.52 1.876 1.876 0 00-.26-3.731zM33.578 38.18c-.232 0-.461.042-.678.125-8.103 2.963-13.431 6.675-16.74 9.69-3.307 3.014-4.68 5.482-4.68 5.482a1.877 1.877 0 002.174 2.76 1.875 1.875 0 001.115-.966s.957-1.805 3.919-4.504c2.962-2.7 7.848-6.14 15.501-8.94a1.875 1.875 0 00-.611-3.647zm21.998 1.278l-6.335 30.326h6.632l3.2-15.165h5.3c1.69 0 2.807.284 3.328.843.518.564.634 1.624.334 3.16l-2.421 11.162h6.738l2.622-12.077c.563-2.895.136-5.018-1.267-6.307-1.428-1.308-3.946-1.834-7.698-1.834H60.1l2.11-10.108h-6.633zm-29.08 10.108l-5.128 27.799h6.687l1.333-7.58h4.16c8.71 0 13.448-2.02 15.22-9.493 1.525-6.422-2.372-10.726-8.796-10.726H26.496zm53.07 0L74.44 77.365h6.687l1.333-7.58h4.16c8.71 0 13.448-2.02 15.22-9.493 1.524-6.422-2.373-10.726-8.797-10.726H79.568zM32.24 54.62h5.21c4.317 0 5.224 1.947 5 4.113-.58 5.574-4.056 5.995-7.797 5.995H30.33l1.908-10.108zm53.07 0h5.212c4.316 0 5.224 1.947 4.999 4.113-.58 5.574-4.058 5.995-7.797 5.995h-4.321L85.31 54.62zm22.746 33.446a1.873 1.873 0 00-1.906 1.948c.013.34.119.671.306.957l2.014 3.163a1.869 1.869 0 001.177.824 1.877 1.877 0 001.987-2.841l-2.018-3.16a1.88 1.88 0 00-1.56-.89zm-7.687 4.153a1.876 1.876 0 00-1.578 2.696l1.6 3.394a1.878 1.878 0 002.498.894 1.876 1.876 0 00.893-2.498l-1.6-3.39a1.868 1.868 0 00-1.813-1.096zm-8.001 3.245a1.874 1.874 0 00-1.674 2.512l1.227 3.545a1.883 1.883 0 00.953 1.074 1.86 1.86 0 002.065-.285 1.863 1.863 0 00.627-1.291 1.876 1.876 0 00-.1-.725l-1.227-3.545a1.874 1.874 0 00-1.871-1.285zm-8.328 2.439a1.876 1.876 0 00-1.721 2.336l.879 3.648a1.877 1.877 0 003.647-.883l-.879-3.644a1.875 1.875 0 00-1.926-1.457zm-8.357 1.659a1.876 1.876 0 00-1.923 2.18l.553 3.708a1.87 1.87 0 00.74 1.231 1.876 1.876 0 002.97-1.784l-.553-3.709a1.874 1.874 0 00-1.787-1.626zm-8.683.912a1.868 1.868 0 00-1.402.587 1.882 1.882 0 00-.506 1.434l.242 3.743a1.875 1.875 0 103.743-.242l-.246-3.743a1.873 1.873 0 00-1.83-1.779z" fill="#fff"></path>
    </g>
    <defs>
      <clipPath id="clip0">
        <path fill="#fff" transform="translate(.001)" d="M0 0h120v120H0z"></path>
      </clipPath>
    </defs>
  </symbol>
  <symbol fill="none" xmlns="http://www.w3.org/2000/svg" viewBox="0 0 120 120" id="ps">
    <path d="M93.75 22.5h-67.5a3.754 3.754 0 00-3.75 3.75v67.5a3.754 3.754 0 003.75 3.75h5.625a1.874 1.874 0 100-3.75H26.25v-67.5h67.5v67.5h-5.625a1.874 1.874 0 100 3.75h5.625a3.754 3.754 0 003.75-3.75v-67.5a3.754 3.754 0 00-3.75-3.75z" fill="#fff"></path>
    <path d="M103.125 11.25h-86.25a5.632 5.632 0 00-5.625 5.625v86.25a5.632 5.632 0 005.625 5.625h86.25a5.632 5.632 0 005.625-5.625v-86.25a5.632 5.632 0 00-5.625-5.625zM105 103.125a1.877 1.877 0 01-1.875 1.875h-86.25A1.877 1.877 0 0115 103.125v-86.25C15 15.84 15.842 15 16.875 15h86.25c1.033 0 1.875.84 1.875 1.875v86.25z" fill="#fff"></path>
    <path d="M50.625 90a1.874 1.874 0 00-1.875 1.875v3.75a1.874 1.874 0 103.75 0v-3.75c0-1.037-.84-1.875-1.875-1.875zM60 90a1.874 1.874 0 00-1.875 1.875v3.75a1.874 1.874 0 103.75 0v-3.75c0-1.037-.84-1.875-1.875-1.875zm9.375 0a1.874 1.874 0 00-1.875 1.875v3.75a1.874 1.874 0 103.75 0v-3.75c0-1.037-.84-1.875-1.875-1.875zm9.375 0a1.874 1.874 0 00-1.875 1.875v3.75a1.874 1.874 0 103.75 0v-3.75c0-1.037-.84-1.875-1.875-1.875zm-37.5 0a1.874 1.874 0 00-1.875 1.875v3.75a1.874 1.874 0 103.75 0v-3.75c0-1.037-.84-1.875-1.875-1.875zM60 50.625c0-5.17-4.206-9.375-9.375-9.375h-7.5a1.874 1.874 0 00-1.875 1.875v33.75a1.874 1.874 0 103.75 0V63.75h5.625c5.17 0 9.375-4.206 9.375-9.375v-3.75zm-3.75 3.75A5.632 5.632 0 0150.625 60H45V45h5.625a5.632 5.632 0 015.625 5.625v3.75zM73.622 64.44l-3.559-1.187a3.744 3.744 0 01-2.563-3.557 3.45 3.45 0 013.446-3.446h.608c1.053 0 2.034.472 2.692 1.294.647.808 1.827.94 2.636.29.809-.647.94-1.828.293-2.634a7.172 7.172 0 00-5.621-2.7h-.608c-3.967 0-7.196 3.229-7.196 7.196a7.487 7.487 0 005.128 7.114l3.559 1.187A3.744 3.744 0 0175 71.554 3.45 3.45 0 0171.554 75h-.608a3.429 3.429 0 01-2.672-1.271 1.879 1.879 0 00-2.638-.27 1.877 1.877 0 00-.27 2.638 7.17 7.17 0 005.58 2.653h.608c3.967 0 7.196-3.229 7.196-7.196a7.489 7.489 0 00-5.128-7.114z" fill="#fff"></path>
  </symbol>
  <symbol fill="none" xmlns="http://www.w3.org/2000/svg" viewBox="0 0 120 120" id="less">
    <g clip-path="url(#clip0)">
      <path d="M114.884 53.063c0-3.844.6-6.113.6-10.238 0-6.413-2.363-8.475-7.594-8.475h-3.844v4.538h1.182c2.662 0 3.243.88 3.243 4.143 0 3.056-.3 6.113-.3 9.657 0 4.537 1.482 6.3 4.425 6.993v.3c-2.962.694-4.425 2.456-4.425 6.994 0 3.544.3 6.413.3 9.656 0 3.356-.693 4.238-3.243 4.238v.094h-1.182v4.725h3.844c5.213 0 7.594-2.063 7.594-8.475 0-4.238-.6-6.413-.6-10.238 0-2.063 1.275-4.237 5.119-4.425v-5.119c-3.844-.131-5.119-2.306-5.119-4.368zm-19.8 6c-2.963-1.182-5.719-1.876-5.719-3.844 0-1.482 1.181-2.363 3.357-2.363 2.175 0 4.143.881 6.3 2.456l3.937-5.212c-2.456-1.875-5.813-3.844-10.35-3.844-6.694 0-11.231 3.844-11.231 9.263 0 4.819 4.237 7.294 7.781 8.662 3.056 1.181 6.019 2.175 6.019 4.144 0 1.481-1.181 2.456-3.844 2.456-2.456 0-4.931-.994-7.594-3.056l-3.937 5.719c2.962 2.456 7.481 4.144 11.231 4.144 7.875 0 12.112-4.144 12.112-9.563 0-5.419-4.218-7.688-8.062-8.963zM27.79 70.2c-.694 0-1.575-.6-1.575-2.456V34.33H12.228c-5.325 0-7.688 2.063-7.688 8.475 0 4.238.6 6.6.6 10.238 0 2.062-1.275 4.237-5.119 4.425v5.118c3.844.094 5.12 2.27 5.12 4.332 0 3.637-.6 5.812-.6 10.05 0 6.412 2.362 8.475 7.593 8.475h3.844v-4.538h-1.181c-2.457 0-3.244-.994-3.244-4.237 0-3.244.3-6.019.3-9.656 0-4.538-1.482-6.3-4.425-6.994v-.3c2.962-.694 4.425-2.456 4.425-6.994 0-3.544-.3-6.413-.3-9.656 0-3.244.693-4.144 3.243-4.144h2.644V67.2c0 6.019 2.063 9.956 8.081 9.956 1.875 0 3.357-.3 4.425-.694l-.993-6.412c-.581.15-.863.15-1.163.15zm43.444-11.138c-3.056-1.18-5.813-1.874-5.813-3.843 0-1.482 1.182-2.363 3.357-2.363 2.175 0 4.143.881 6.3 2.456l3.937-5.212c-2.456-1.875-5.812-3.844-10.35-3.844-6.694 0-11.231 3.844-11.231 9.263 0 4.819 4.238 7.294 7.781 8.662 3.056 1.181 6.019 2.175 6.019 4.144 0 1.481-1.181 2.456-3.844 2.456-2.456 0-4.931-.994-7.593-3.056l-3.844 5.719c2.962 2.456 7.481 4.144 11.231 4.144 7.875 0 12.112-4.144 12.112-9.563.02-5.419-4.218-7.688-8.062-8.963zm-29.062-12.9c-7.2 0-14.082 6.02-13.894 15.47 0 9.75 6.412 15.468 14.869 15.468 3.543 0 7.48-1.275 10.537-3.356l-2.962-5.213c-2.175 1.275-4.238 1.875-6.413 1.875-3.938 0-6.994-1.875-7.781-6.412h17.85c.093-.694.3-2.063.3-3.638.112-7.987-4.238-14.194-12.506-14.194zm-5.625 12.413c.6-3.938 2.962-5.813 5.718-5.813 3.544 0 4.931 2.457 4.931 5.813h-10.65z" fill="#fff"></path>
    </g>
    <defs>
      <clipPath id="clip0">
        <path fill="#fff" d="M0 0h120v120H0z"></path>
      </clipPath>
    </defs>
  </symbol>
  <symbol fill="none" xmlns="http://www.w3.org/2000/svg" viewBox="0 0 120 120" id="npm">
    <path d="M0 37.5v41.25h33.75v7.5H60v-7.5h60V37.5H0zm6.664 6.664H33.34v28.755h-6.678v-22.08h-6.66v22.08H6.663V44.164zm33.341 0h26.666V72.91H53.336v6.675H40.005V44.164zm33.334 0h40.005v28.755h-6.675v-22.08h-6.664v22.08h-6.664v-22.08h-6.675v22.08H73.34V44.164zm-20.003 6.675v15.416H60V50.839h-6.664z" fill="#fff"></path>
  </symbol>
  <symbol fill="none" xmlns="http://www.w3.org/2000/svg" viewBox="0 0 120 120" id="stylus">
    <g clip-path="url(#clip0)">
      <path d="M68.358 44.299c-2.228-1.759-8.498 1.192-10.253 5.587-2.227 5.588-5.527 13.752-8.771 17.307-3.416 3.768-3.75.858-3.416-1.31.802-5.095 5.782-16.893 8.497-20.234-1.016-1.504-7.597-1.29-12.187 5.839-1.7 2.677-5.607 11.62-9.942 18.67-.956 1.523-2.148.45-1.23-3.104 1.035-4.121 4.103-15.45 8.03-24.375 10.33-2.033 21.27-3.476 29.665-3.495 1.133-.311 1.894-1.328 0-1.388-7.226-.236-18.086.627-28.26 1.894 1.954-3.907 4.062-7.012 6.192-8.321-2.325-1.466-7.013-.9-9.71 3.086a51.03 51.03 0 00-3.494 6.21c-7.463 1.174-13.83 2.479-17.07 3.69-3.36 1.29-2.989 5.351-.938 4.59 4.238-1.582 9.98-3.244 16.347-4.706C27.756 53.4 24.59 64.2 23.83 68.595c-1.894 10.685 4.725 10.625 7.97 6.428 3.495-4.628 10.819-20.82 11.955-22.538.334-.566.802-.274.547.255-8.163 16.328-7.48 22.635-.84 21.229 2.99-.645 8.145-5.76 9.492-8.419.273-.645.858-.585.723-.311-5.193 13.477-11.778 24.375-16.21 27.791-4.025 3.068-7.013-3.615 7.244-13.204 2.111-1.425 1.114-3.378-1.249-2.715-7.365 1.174-28.417 7.853-37.676 14.258-.705.487-1.346.877-1.309 1.894.02.585 1.035.37 1.523.06C17.973 86.156 27.756 83.343 39.006 81c.135.06.334.098.47.019.528-.116.487.157.157.371-.545.332-1.113.626-1.7.878-7.578 2.97-12.15 9.49-10.525 12.832 1.368 2.873 8.79 1.838 12.285-.06 8.613-4.669 14.865-13.83 19.14-26.464 3.73-11.212 8.437-23.906 9.532-24.277h-.007zM18.475 80.468c3.124-3.713 3.476-7.56 1.073-14.708-1.523-4.511-4.062-7.987-2.21-10.8 1.992-2.989 6.21-.097 2.697 3.908l.705.487c4.219.488 6.289-5.291 3.146-6.934-8.302-4.335-15.566 4.005-12.363 13.654 1.368 4.084 3.3 8.419 1.74 11.876C11.916 80.9 9.318 82.64 7.578 82.7c-3.634.195-1.212-8.145 2.97-10.215.37-.176.877-.431.39-1.035-5.157-.585-8.183 1.796-9.923 5.119-5.059 9.667 9.63 13.26 17.46 3.907v-.007zm99.904-10.313c-14.003-1.837-44.22.604-57.559 4.159-3.964 1.035-2.872 3.124-.859 2.734.038 0 .9-.214.92-.214 10.957-2.13 37.537-4.005 53.047-1.035 1.875.334 7.462-5.254 4.455-5.644h-.004zm-46.114-1.639c3.908-1.953 9.709-14.043 13.515-20.662.274-.488.761-.098.488.236-9.65 16.601-5.547 18.536-1.74 18.281 5.096-.292 9.806-7.635 10.84-9.277.432-.645.683-.116.432.334-.255.76-1.132 2.11-1.954 3.945-1.173 2.598.06 3.592 1.073 4.06 1.582.762 5.917.275 6.581-2.38-4.335-.098 6.056-20.547 7.11-21.8-2.891-1.68-7.384.158-9.435 4.182-4.354 8.633-8.029 15.604-10.312 15.724-4.455.236 5.137-19.256 6.678-19.864-.937-1.387-7.012-.802-10.41 4.455-1.21 1.894-8.65 15.079-10.488 17.246-3.244 3.848-3.477.548-2.58-3.3.31-1.308.84-2.988 1.503-4.845 2.15-4.822 4.433-6.367 5.84-7.908 9.434-10.47 14.823-18.964 12.693-22.287-1.894-2.97-8.224-1.66-12.266 4.455-7.482 11.213-14.374 26.562-15.274 33.574-.859 7.031 4.237 7.538 7.695 5.839l.011-.008zm36.874-16.485c1.192 2.93 2.989 5.82 1.912 8.4-.877 2.187-2.032 3.105-3.318 3.32-1.797.292-1.309-5.352 1.777-7.032.274-.135.664-.878.293-1.309-3.908-.214-6.094 1.643-7.287 4.121-3.457 7.245 7.812 9.218 13.339 2.112 2.186-2.832 2.284-5.644.176-10.744-1.346-3.244-3.378-5.644-2.111-7.793 1.388-2.246 4.669-.292 2.209 2.715l.547.312c3.203.176 4.512-4.084 2.07-5.157-6.427-2.752-12.442 4.182-9.611 11.055h.004zm-32.91-4.06c.334-.762.547-.976 1.132-2.266 3.36-7.384 7.58-15.176 10.47-18.787 1.797-1.894 4.335.663-.236 7.676a70.239 70.239 0 01-9.082 11.329v.037c-.84.938-1.602 1.74-1.954 2.186-.236.312-.506.255-.334-.176h.004z" fill="#fff"></path>
    </g>
    <defs>
      <clipPath id="clip0">
        <path fill="#fff" d="M0 0h120v120H0z"></path>
      </clipPath>
    </defs>
  </symbol>
  <symbol fill="none" xmlns="http://www.w3.org/2000/svg" viewBox="0 0 120 120" id="figma">
    <path d="M85.8 44.062a18.744 18.744 0 00-9.862-34.687H44.063a18.744 18.744 0 00-9.862 34.688 18.733 18.733 0 000 31.874 18.747 18.747 0 1028.612 15.938V73.373a18.741 18.741 0 1022.988-29.311zm3.263-15.937A13.14 13.14 0 0175.948 41.25H62.813V15h13.125a13.14 13.14 0 0113.125 13.125zm-58.125 0A13.14 13.14 0 0144.063 15h13.125v26.25H44.054a13.14 13.14 0 01-13.116-13.125zm0 31.874a13.14 13.14 0 0113.116-13.125l.01.001h13.124v26.25H44.063a13.14 13.14 0 01-13.125-13.126zm13.125 45a13.13 13.13 0 01-9.331-3.816 13.128 13.128 0 010-18.617 13.126 13.126 0 019.331-3.817h13.125v13.126a13.14 13.14 0 01-13.125 13.124zm31.875-31.874a13.125 13.125 0 01-.018-26.25h.028a13.125 13.125 0 01-.01 26.25z" fill="#fff"></path>
  </symbol>
  <symbol fill="none" xmlns="http://www.w3.org/2000/svg" viewBox="0 0 120 120" id="git">
    <g clip-path="url(#clip0)">
      <path d="M99.546 57.976a18.825 18.825 0 00-23.692-2.325 18.75 18.75 0 00-6.908 8.4 16.727 16.727 0 00-.975 3.3 33.9 33.9 0 01-30-30 16.72 16.72 0 003.3-.975 18.75 18.75 0 0011.55-17.325 18.375 18.375 0 00-1.425-7.5A18.6 18.6 0 0041.271 1.426 18.375 18.375 0 0033.771 0a18.75 18.75 0 00-17.325 11.55 18.9 18.9 0 004.05 20.475 19.273 19.273 0 009.525 5.1v38.25a18.072 18.072 0 00-6.675 2.775 18.75 18.75 0 1026.025 26.01 18.752 18.752 0 003.15-10.403 18.375 18.375 0 00-1.425-7.5 18.6 18.6 0 00-13.575-11.175v-18a41.4 41.4 0 0015 12.975 42.373 42.373 0 0015.675 4.5 18.75 18.75 0 0037.125-3.675 18.821 18.821 0 00-5.775-12.9v-.007zm-61.5 25.35c2.07.877 3.84 2.34 5.1 4.2a11.25 11.25 0 01-15.6 15.6 11.627 11.627 0 01-4.2-5.1 11.174 11.174 0 01-.6-6.45 11.175 11.175 0 018.85-8.85 11.175 11.175 0 016.45.6zM33.771 30a11.25 11.25 0 01-10.425-6.975 11.174 11.174 0 01-.6-6.45 11.175 11.175 0 018.85-8.85 11.175 11.175 0 016.45.6A11.25 11.25 0 0133.771 30zm60.45 49.2a11.25 11.25 0 01-18.375-3.675 11.175 11.175 0 01-.6-6.45 11.175 11.175 0 018.85-8.85 11.175 11.175 0 0110.866 3.85 11.242 11.242 0 01-.74 15.125z" fill="#fff"></path>
    </g>
    <defs>
      <clipPath id="clip0">
        <path fill="#fff" d="M0 0h120v120H0z"></path>
      </clipPath>
    </defs>
  </symbol>
  <symbol fill="none" xmlns="http://www.w3.org/2000/svg" viewBox="0 0 35 35" id="linkedin">
    <path d="M9.048 10.365h-5.9a1.2 1.2 0 00-1.2 1.2V33.8a1.2 1.2 0 001.2 1.2h5.9a1.2 1.2 0 001.2-1.2V11.566a1.2 1.2 0 00-1.2-1.2zm-.854 22.581H4.002V12.42h4.192v20.527zM6.098 0a4.188 4.188 0 00-4.184 4.184 4.188 4.188 0 004.184 4.183 4.188 4.188 0 004.183-4.183A4.188 4.188 0 006.098 0zm0 6.314a2.132 2.132 0 01-2.13-2.13c0-1.175.955-2.13 2.13-2.13 1.174 0 2.13.955 2.13 2.13 0 1.174-.956 2.13-2.13 2.13zm23.232 6.658a7.655 7.655 0 00-5.047-1.773 7.738 7.738 0 00-3.278.797v-.485c0-.633-.513-1.146-1.146-1.146h-6.007c-.633 0-1.146.513-1.146 1.146v22.343c0 .633.513 1.146 1.146 1.146h6.126c.567 0 1.027-.46 1.027-1.027V20.651c0-1.14.892-2.105 2.032-2.139a2.098 2.098 0 012.159 2.095v13.388c0 .555.45 1.005 1.005 1.005h5.888c.555 0 1.005-.45 1.005-1.005v-12.98a10.45 10.45 0 00-3.764-8.043zm1.71 19.974h-3.79v-12.34a4.154 4.154 0 00-4.15-4.149 4.154 4.154 0 00-4.149 4.15v12.34H14.76V12.418h4.191v1.492h.001a1.027 1.027 0 001.706.769 5.69 5.69 0 013.662-1.428 5.596 5.596 0 013.694 1.296 8.4 8.4 0 013.027 6.466v11.932z" fill="#BFA06D"></path>
  </symbol>
  <symbol fill="none" xmlns="http://www.w3.org/2000/svg" viewBox="0 0 35 45" id="telegram">
    <path d="M29.456 5.093L4.59 15.74s-1.176.439-1.085 1.25c.093.812 1.053 1.183 1.053 1.183l6.257 2.298s1.888 6.758 2.26 8.044c.372 1.282.67 1.312.67 1.312.346.165.66-.097.66-.097l4.043-4.02 6.3 5.27c1.705.812 2.325-.878 2.325-.878L31.5 5.737c0-1.623-2.044-.644-2.044-.644zm-4.402 23.048l-6.74-5.637-2.092 2.08.46-4.425 8.984-8.759-12.246 7.48-5.432-1.995 20.726-8.873-3.66 20.13z" fill="#BFA06D"></path>
  </symbol>
  <symbol fill="none" xmlns="http://www.w3.org/2000/svg" viewBox="0 0 35 35" id="email">
    <path d="M17.5 23.333a5.833 5.833 0 100-11.666 5.833 5.833 0 000 11.666z" stroke="#BFA06D" stroke-width="2.75" stroke-linecap="round" stroke-linejoin="round"></path>
    <path d="M23.333 17.5v2.188a3.646 3.646 0 107.292 0V17.5a13.125 13.125 0 10-8.02 12.075" stroke="#BFA06D" stroke-width="2.75" stroke-linecap="round" stroke-linejoin="round"></path>
  </symbol>
  <symbol fill="none" xmlns="http://www.w3.org/2000/svg" viewBox="0 0 35 35" id="tel">
    <path d="M7.292 5.833h5.833l2.917 7.292-3.646 2.188a16.042 16.042 0 007.291 7.291l2.188-3.646 7.292 2.917v5.833a2.916 2.916 0 01-2.917 2.917A23.333 23.333 0 014.375 8.75a2.917 2.917 0 012.917-2.917" stroke="#BFA06D" stroke-width="2.75" stroke-linecap="round" stroke-linejoin="round"></path>
  </symbol>
  <symbol fill="none" xmlns="http://www.w3.org/2000/svg" viewBox="0 0 35 35" id="github">
    <path d="M.268 15.257c-1.136 7.155 2.043 15.784 11.846 18.967a2.7 2.7 0 00.489.047c1.14 0 1.925-.849 1.925-1.896-.142-.763.558-3.853-1.342-3.437-3.673.781-4.114-1.27-4.674-2.344 1.584 2.033 3.964 1.982 5.759 1.195.996-.438.475-1.552.948-1.959.723-.621.356-1.813-.594-1.916-3.374-.372-6.5-1.46-6.5-6.857 0-3.162 2.195-3.445 1.59-4.768-.022-.048-.485-1.1-.065-2.696 2.069.382 3.021 1.867 4.014 1.6a14.7 14.7 0 017.627 0c1.027.275 1.76-1.168 3.993-1.609.643 2.412-.69 3.001.15 3.904.922.992 1.39 2.192 1.39 3.569 0 8.114-6.879 5.77-7.439 7.612-.128.42.008.874.343 1.155.89.748.773 2.669.678 4.213-.098 1.602-.182 2.983.703 3.761.312.277.868.573 1.873.37 9.674-3.108 12.877-11.7 11.758-18.838C31.683-4.165 3.348-4.142.268 15.257zm12.06 16.01l.006.736a17.22 17.22 0 01-2.15-.908c.62.159 1.33.227 2.145.172zm.54-5.396l-.022.117c-1.244.367-2.2.001-2.854-1.097l-.001-.003c.992.53 2.014.817 2.877.983zM17.5 2.917c17.256 0 21.148 23.722 5.059 29.08-.056-.433-.005-1.25.03-1.825.085-1.387.184-3.003-.31-4.354 7.42-1.544 8.04-9.692 5.183-13.322.354-1.388.211-4.65-1.064-5.05-.3-.095-1.903-.443-5.012 1.513a17 17 0 00-7.818 0c-1.551-.973-5.049-2.555-5.72-.875-.778 1.957-.593 3.539-.361 4.418-2.536 3.214-1.776 8.596.779 11.122-1.448-.693-3.443-.93-3.874.457-.47 1.513 1.33 1.329 2.449 4.09.106.344.303.748.605 1.149C-2.487 21.204 2.306 2.917 17.5 2.917z" fill="#BFA06D"></path>
  </symbol>
  <symbol fill="none" xmlns="http://www.w3.org/2000/svg" viewBox="0 0 121 120" id="redux">
    <path d="M57.501 10c-15.42 0-27.5 17.912-27.5 40.772 0 10.32 2.58 19.477 6.71 26.572-.27.845-.46 1.726-.46 2.656 0 4.83 3.92 8.75 8.75 8.75s8.75-3.92 8.75-8.75-3.92-8.75-8.75-8.75c-.095 0-.188.024-.283.03-2.875-5.496-4.717-12.659-4.717-20.508 0-16.68 8.015-30.772 17.5-30.772 6.43 0 12.175 6.485 15.215 15.85 3.715.595 7.419 1.61 11.104 2.88C80.43 21.927 70.08 10 57.5 10zm-.625 32.5c-4.83 0-8.75 3.92-8.75 8.75s3.92 8.75 8.75 8.75c3.435 0 6.378-1.993 7.813-4.873 6.465.29 13.66 2.165 20.45 5.84 9.8 5.31 17.191 13.46 19.276 21.28 1.075 4.014.692 7.543-1.113 10.478-3.59 5.84-12.168 8.178-21.953 6.943-2.895 2.955-6.2 5.67-9.785 8.125 5 1.46 9.954 2.217 14.62 2.217 11.17 0 20.734-4.076 25.634-12.041 3.26-5.3 4.041-11.626 2.256-18.301-2.82-10.535-11.865-20.82-24.18-27.49-8.995-4.875-18.356-7.145-26.826-7.11a8.706 8.706 0 00-6.192-2.568zM20.49 58.71c-7.3 6.046-12.536 13.423-14.551 20.958-1.785 6.675-1.004 13.001 2.256 18.291C13.085 105.924 22.655 110 33.83 110c8.46 0 17.836-2.318 26.796-7.178 8.55-4.63 15.459-11.008 19.864-17.998a8.75 8.75 0 007.01-8.574c0-4.83-3.92-8.75-8.75-8.75S70 71.42 70 76.25c0 1.63.48 3.143 1.26 4.453-3.535 5.075-8.915 9.825-15.39 13.33-15.595 8.445-33.54 7.842-39.17-1.318-1.805-2.935-2.179-6.454-1.104-10.469 1.09-4.075 3.642-8.24 7.207-12.05-1.09-3.626-1.864-7.47-2.314-11.485z" fill="#fff"></path>
  </symbol>
  <symbol fill="none" xmlns="http://www.w3.org/2000/svg" viewBox="0 0 120 120" id="react">
    <path d="M82.932 9.562c-1.871-.063-3.83.264-5.794.9-3.927 1.274-8.043 3.755-12.267 7.191-1.655 1.347-3.325 2.886-5.001 4.519-1.64-1.592-3.276-3.094-4.894-4.411-4.22-3.433-8.325-5.911-12.244-7.181-3.919-1.27-7.818-1.31-11.02.539-3.203 1.848-5.118 5.242-5.977 9.271-.859 4.03-.769 8.827.094 14.199.3 1.866.732 3.823 1.219 5.817-1.83.555-3.607 1.138-5.255 1.781-4.973 1.943-9.088 4.266-12.084 7.032-2.997 2.765-4.932 6.12-4.932 9.806 0 3.685 1.935 7.036 4.932 9.801 2.996 2.766 7.11 5.094 12.084 7.036 1.762.689 3.67 1.308 5.639 1.894-.708 2.647-1.282 5.215-1.673 7.65-.864 5.376-.955 10.174-.094 14.213.86 4.038 2.777 7.451 5.995 9.309 3.218 1.858 7.135 1.812 11.063.539 3.927-1.273 8.038-3.75 12.262-7.186 1.64-1.334 3.3-2.856 4.96-4.472 1.668 1.625 3.335 3.156 4.982 4.496 4.22 3.433 8.33 5.91 12.249 7.181 3.918 1.27 7.813 1.31 11.015-.539 3.203-1.849 5.118-5.243 5.977-9.272.86-4.03.764-8.827-.099-14.199-.392-2.44-.966-5.013-1.678-7.668 2.035-.6 4.003-1.237 5.818-1.946 4.973-1.942 9.088-4.27 12.084-7.036 2.996-2.765 4.931-6.116 4.931-9.801 0-3.685-1.935-7.041-4.931-9.806-2.996-2.766-7.111-5.09-12.084-7.032-1.672-.652-3.476-1.243-5.335-1.804.491-2.007.927-3.978 1.228-5.855.864-5.376.955-10.18.094-14.217-.86-4.038-2.782-7.447-6-9.305-1.609-.929-3.393-1.38-5.264-1.444zm-.22 4.885c1.174.032 2.176.311 3.032.806 1.714.99 2.981 2.915 3.657 6.084.676 3.17.652 7.452-.145 12.418-.274 1.7-.67 3.502-1.12 5.348-4.909-1.181-10.286-2.058-16.018-2.574-2.88-3.989-5.839-7.618-8.822-10.842 1.577-1.54 3.144-2.979 4.673-4.223 3.902-3.174 7.596-5.333 10.679-6.333 1.54-.5 2.89-.716 4.064-.684zm-45.544.014c1.181-.033 2.532.183 4.078.684 3.092 1.002 6.792 3.161 10.697 6.338 1.498 1.218 3.03 2.627 4.575 4.13-3.005 3.249-5.985 6.916-8.883 10.94-5.711.525-11.07 1.41-15.956 2.597-.448-1.838-.84-3.632-1.111-5.325-.799-4.97-.818-9.258-.14-12.436.677-3.178 1.954-5.114 3.684-6.113.864-.499 1.875-.782 3.056-.815zm22.776 14.681a108.172 108.172 0 015.85 6.961 138.81 138.81 0 00-5.793-.127c-1.998 0-3.964.05-5.907.132a108.16 108.16 0 015.85-6.966zm.057 11.681c3.264 0 6.445.134 9.539.361a136.229 136.229 0 016.192 9.736 137.126 137.126 0 014.753 9.005 137.26 137.26 0 01-4.819 9.126 137.184 137.184 0 01-4.828 7.716c-3.495.292-7.116.455-10.837.455-3.81 0-7.514-.172-11.086-.478a137.403 137.403 0 01-4.749-7.603 137.145 137.145 0 01-4.804-9.104 136.911 136.911 0 014.828-9.159 136.177 136.177 0 016.164-9.684c3.127-.232 6.346-.37 9.647-.37zm15.722.961c3.954.494 7.667 1.18 11.123 2.002a108.039 108.039 0 01-3.82 10.5 145.189 145.189 0 00-3.136-5.766 144.385 144.385 0 00-4.167-6.736zm-31.697.038a144.213 144.213 0 00-4.078 6.604 145.409 145.409 0 00-3.183 5.841 108.011 108.011 0 01-3.792-10.439 102.984 102.984 0 0111.053-2.006zm47.568 3.239c1.702.515 3.345 1.052 4.852 1.64 4.584 1.791 8.211 3.911 10.561 6.08 2.35 2.169 3.37 4.237 3.37 6.244 0 2.006-1.02 4.075-3.37 6.244-2.35 2.168-5.977 4.289-10.56 6.08-1.676.653-3.516 1.247-5.429 1.809-1.365-4.221-3.107-8.625-5.18-13.12 2.384-5.162 4.31-10.194 5.757-14.977zm-63.267.023c1.43 4.735 3.332 9.718 5.682 14.827-2.087 4.522-3.838 8.95-5.208 13.195-1.846-.547-3.624-1.124-5.245-1.758-4.585-1.79-8.211-3.91-10.562-6.08-2.35-2.168-3.37-4.237-3.37-6.243 0-2.007 1.02-4.075 3.37-6.244 2.35-2.169 5.977-4.289 10.561-6.08 1.484-.58 3.1-1.109 4.772-1.617zM60.001 48c-6.6 0-12 5.4-12 12 0 6.599 5.4 12 12 12 6.599 0 12-5.401 12-12 0-6.6-5.401-12-12-12zm0 4.8c4.005 0 7.2 3.195 7.2 7.2 0 4.005-3.195 7.2-7.2 7.2a7.164 7.164 0 01-7.2-7.2c0-4.005 3.195-7.2 7.2-7.2zm23.086 12.872a111.4 111.4 0 013.272 8.704c-2.887.67-5.96 1.234-9.193 1.678.931-1.484 1.85-2.997 2.747-4.551a145.564 145.564 0 003.174-5.831zm-46.266.004c1.01 1.95 2.06 3.904 3.192 5.864a145.2 145.2 0 002.71 4.5 102.63 102.63 0 01-9.164-1.682c.915-2.803 2.01-5.711 3.262-8.682zm-4.645 13.341c4.343 1.029 9.051 1.82 14.043 2.334 3.334 4.821 6.804 9.151 10.299 12.938-1.563 1.523-3.111 2.953-4.627 4.186-3.901 3.174-7.6 5.329-10.682 6.328-3.083.999-5.384.868-7.097-.122-1.714-.989-2.976-2.915-3.652-6.084-.676-3.17-.657-7.447.14-12.413.363-2.253.903-4.665 1.576-7.167zm55.57.019c.678 2.516 1.22 4.94 1.585 7.204.798 4.97.818 9.253.14 12.432-.678 3.178-1.95 5.118-3.68 6.117-1.73.998-4.047 1.133-7.139.131-3.091-1.002-6.791-3.165-10.697-6.342-1.526-1.242-3.085-2.678-4.659-4.214 3.518-3.801 7.014-8.154 10.369-13.003 5.005-.512 9.726-1.297 14.081-2.325zm-35.264 2.808c2.464.134 4.961.225 7.519.225 2.473 0 4.889-.086 7.275-.211a110.478 110.478 0 01-7.402 8.976 110.867 110.867 0 01-7.392-8.99z" fill="#fff"></path>
  </symbol>
  <symbol fill="none" xmlns="http://www.w3.org/2000/svg" viewBox="0 0 120 120" id="bootstrap">
    <path d="M18.75 18.75v82.5h82.5v-82.5h-82.5zm7.5 7.5h67.5v67.5h-67.5v-67.5zm15 11.25v44.963c22.236 0 26.69.3 30.85-.937 2.439-.747 9.11-3.15 9.11-11.587 0-3.75-1.12-10.093-8.473-11.667v-.11h-1.384c3.75-1.685 6.108-4.871 6.108-9.559 0-1.2.337-11.103-12.788-11.103H41.25zm7.5 7.5h15c5.662 0 6.21 3.2 6.21 5.588 0 5.83-6.1 5.662-6.21 5.662h-15V45zm0 18.75H66.6c6.98 0 7.11 4.41 7.11 5.552 0 5.852-6.041 5.698-6.774 5.698H48.75V63.75z" fill="#fff"></path>
  </symbol>
  <symbol fill="none" xmlns="http://www.w3.org/2000/svg" viewBox="0 0 120 120" id="jquery">
    <path d="M72.075 7.2a2.429 2.429 0 00-1.144.253c-1.509.75-2.475 1.856-3.346 2.822a31.116 31.116 0 00-1.51 1.828.763.763 0 00-.075.113c-2.381 3.58-3.553 7.659-3.6 11.765-.028 3.16.61 6.338 1.847 9.328 3.028 7.266 9.112 12.882 16.266 15.563h.009c.328.131.619.234.853.319a.497.497 0 01.113.037c.046.01.15.047.328.094.272.093.731.281 1.406.412 1.96.394 3.788.6 5.503.657 7.594.234 12.853-2.691 16.134-5.888 1.641-1.603 2.813-3.263 3.638-4.612.834-1.35 1.472-2.57 1.481-2.579h.01a2.41 2.41 0 00-.647-3.309 2.411 2.411 0 00-3.328.61c-1.857 2.727-4.163 4.293-7.107 5.053-2.943.759-6.562.646-10.715-.385a18.815 18.815 0 01-1.885-.6s-.009 0-.018-.01a23.97 23.97 0 01-2.297-.965l-.01-.01-.018-.009a23.615 23.615 0 01-4.032-2.521c-3.45-2.682-6.13-7.07-7.275-11.654-1.143-4.584-.75-9.253 1.378-12.637.46-.731.488-1.65.085-2.41A2.392 2.392 0 0072.075 7.2zM50.391 12c-.553 0-1.088.197-1.51.544-3.843 3.13-7.5 7.997-7.5 7.997a.36.36 0 00-.065.103c-7.107 10.33-6.666 23.915-1.257 34.63a42.965 42.965 0 003.038 5.138l.01.01c.89 1.312 1.968 3.028 3.524 4.462a29.038 29.038 0 001.557 1.64c.121.132.253.263.375.385.009.019.018.028.028.028.497.488 1.012.975 1.547 1.454l.009.009.066.066.037.018c.028.038.066.066.103.094.563.506 1.135.984 1.725 1.444a6.99 6.99 0 00.478.375c.6.468 1.21.918 1.81 1.35.075.056.16.112.234.15.056.037.094.065.14.103h.01c.216.15.431.29.61.412.056.038.187.132.403.272.468.31.928.59 1.406.882.047.028.103.056.15.084 0 0 .075.037.16.075.018.019.018.01.046.028.375.225.76.45 1.163.656.14.085.309.169.356.197.028.019.056.028.084.047.244.122.507.262.778.412.235.122.3.132.282.132.6.29 1.171.553 1.706.806.037.01.075.028.122.047.112.047.206.084.328.14.478.197.975.422 1.5.62.028.009.066.027.094.037.103.037.28.103.553.206 0 0 .01 0 .01.01.45.159.908.309 1.358.459.235.084.441.15.62.215h.009c.496.16 1.237.47 2.24.638 0 0 0-.01.01 0 3.787.628 7.284.881 10.509.816 13.19-.291 21.741-6.104 26.756-11.822 5.006-5.72 6.694-11.494 6.694-11.494a2.387 2.387 0 00-1.275-2.84 2.404 2.404 0 00-3.009.815c-6.375 9.319-18.77 14.11-32.325 10.537a21.03 21.03 0 01-1.753-.515c-.038-.01-.085-.028-.132-.038a4.702 4.702 0 01-.394-.122c-.018-.009-.037-.018-.046-.028-.441-.14-.854-.272-1.229-.422h-.009c-.216-.084-.403-.15-.562-.215a37.07 37.07 0 01-1.313-.535.283.283 0 00-.075-.037c-.206-.084-.3-.131-.169-.066-.056-.028-.112-.047-.168-.075a40.79 40.79 0 01-1.613-.76l-.037-.008c0-.01-.01-.01-.02-.02-.271-.14-.534-.271-.805-.421-.01 0-.02-.01-.038-.01a37.063 37.063 0 00-.469-.253v.01c-.309-.16-.628-.356-1.003-.581a.445.445 0 01-.065-.029c-.113-.065-.15-.084-.17-.103h-.008l-.02-.01c-.459-.28-.89-.543-1.227-.777-.047-.028-.104-.056-.15-.085.037.02-.066-.056-.31-.215-.253-.16-.515-.328-.797-.525h-.009c-.01-.01-.019-.019-.038-.019a101.23 101.23 0 01-1.621-1.219l-.047-.047c-.131-.103-.244-.187-.319-.253a.248.248 0 01-.056-.047c-5.981-4.772-10.688-11.306-12.9-18.609v-.01c-2.222-7.19.065-16.021 3.956-22.743.431-.74.431-1.66 0-2.41A2.408 2.408 0 0050.391 12zM24.01 19.2c-.591 0-1.172.216-1.613.619-.131.112-.197.234-.328.356-4.66 4.312-7.978 9.562-8.044 9.675-9.656 14.034-8.372 35.569-1.162 50.11v.027c.187.394.375.741.525 1.013.075.169.159.328.243.487.178.404.31.572.329.6.112.216.224.432.309.591.01.019.028.047.037.066.216.347.422.73.657 1.115 0 .01.009.019.018.028.104.17.235.413.441.713.262.431.506.816.684 1.097.01.019.02.028.02.037.093.14.205.328.346.525.01.019.019.028.028.038.01.019.01.028.028.056a46.36 46.36 0 001.06 1.547c.037.047.028.028.056.075a.804.804 0 01.047.066c.01.009.028.037.037.056l.01.01c.018.027.093.121.093.121 0 .01.01.019.02.019.337.469.684.947 1.05 1.415.14.188.262.347.327.432.019.028.047.056.066.093.31.366.61.741.919 1.125a.13.13 0 00.028.038c.093.112.215.253.347.412.403.488.815.957 1.237 1.425.038.038.075.085.113.122l-.02-.028c.123.14.338.375.554.516l-.45-.385c.44.488.89.966 1.34 1.444.01.01.02.01.02.019l.487.487c.319.32.656.666 1.05 1.041.15.14.3.272.403.384.01.01.01.01.019.01.431.412.9.853 1.397 1.294.047.028.075.065.112.093v.01c.131.112.206.178.188.159.028.019.046.047.075.066.44.384.88.759 1.322 1.134.215.169.403.319.562.459h.019c.394.329.769.61 1.125.882 0 .009.01.009.01.018.177.132.365.272.571.432.01.009.019.009.028.018.422.319.844.619 1.247.91.122.094.263.187.413.29-.01-.009.046.038.028.029.065.046.13.093.187.131.394.262.778.525 1.181.787 0 .01.01.01.01.01.178.112.337.225.497.328.009.009.018.019.037.028a76.19 76.19 0 001.997 1.237c.15.085.29.16.422.235l.019.019c.478.271.956.553 1.462.825l-.047-.029c.338.188.638.329.881.45.3.169.62.347.957.516.047.028.103.056.16.084.177.066.177.085-.01-.028a.955.955 0 00.197.103c.028.019.13.066.309.16h.019a29.87 29.87 0 001.66.778c.13.066.215.103.187.084.056.028.103.057.15.075.628.282 1.265.544 1.912.807.01 0 .028.009.038.009.037.009.225.094.412.159.038.019.075.028.113.038.018.009.009.009.028.019.515.196 1.031.393 1.547.571.14.066.262.104.346.141.675.225 1.332.441 2.007.647.019.009.037.019.065.028.038.009.216.066.413.122.01 0 .019.009.028.009.047.01.038.01.084.028.572.179 1.247.432 2.128.6h.02c4.63.854 8.934 1.238 12.946 1.238 34.406.009 45.441-27.947 45.441-27.947a2.408 2.408 0 00-1.078-2.953 2.412 2.412 0 00-3.075.647c-9.797 12.881-27.366 15.487-44.503 11.55-.516-.122-1.126-.31-1.829-.525-.009 0-.028-.01-.037-.01-.122-.037-.253-.075-.319-.103l-.112-.028c-.6-.187-1.21-.394-1.82-.6-.009-.01-.027-.01-.046-.019-.037-.009-.075-.018-.103-.037-.038-.01-.075-.028-.122-.038a55.239 55.239 0 01-1.5-.562l-.084-.038a6.2 6.2 0 01-.46-.178 51.892 51.892 0 01-1.865-.787c.009 0-.113-.047-.188-.075-.497-.235-.984-.469-1.49-.713-.038-.01-.066-.028-.104-.047a2.234 2.234 0 01-.28-.14c-.02-.01-.038-.019-.066-.028a23.94 23.94 0 01-1.07-.553c-.009-.01-.027-.02-.037-.029-.3-.15-.534-.262-.703-.365-.019 0-.028-.01-.047-.019-.44-.234-.9-.506-1.387-.778l.187.112c-.319-.206-.544-.318-.675-.393l.075.037c-.61-.365-1.21-.731-1.781-1.097-.01-.01-.019-.01-.019-.019a5.572 5.572 0 01-.403-.262c-.028-.028-.066-.047-.094-.066-.393-.253-.797-.534-1.218-.815l-.029-.019c-.084-.066-.215-.16-.393-.29-.375-.263-.75-.535-1.135-.826h-.018c-.02-.018-.028-.028-.047-.047-.15-.121-.319-.243-.488-.374-.375-.291-.731-.563-1.05-.826l-.047-.028c-.187-.159-.356-.3-.478-.403 0 0-.01 0-.018-.01-.441-.355-.863-.73-1.322-1.124l.197.197c-.385-.431-.563-.488-.47-.422l.132.112a82.79 82.79 0 01-1.406-1.303l-.028-.019a15.62 15.62 0 00-.357-.346l-.065-.066a95.858 95.858 0 01-.956-.947l-.02-.019c-.13-.13-.252-.262-.402-.412a32.748 32.748 0 01-1.22-1.303c-.018-.019-.046-.047-.065-.075h-.01c-.421-.46-.834-.938-1.255-1.435 0-.009 0-.018-.01-.028-.065-.075-.178-.215-.356-.422-.29-.356-.581-.73-.9-1.115l-.01-.01c-.102-.14-.215-.29-.28-.375l-.01-.009a66.443 66.443 0 01-1.031-1.397l-.01-.01c-4.518-6.224-7.64-16.293-8.512-25.987-.881-9.684.628-18.984 4.003-23.56a2.377 2.377 0 00.225-2.493A2.399 2.399 0 0024.01 19.2zm43.678 1.556c.13 1.313-.01 2.634.309 3.919 1.397 5.56 4.519 10.81 8.99 14.287A28.656 28.656 0 0081.854 42c.01.01.019.019.028.019.9.43 1.829.825 2.775 1.172l-.018-.01c.73.272 1.556.553 2.39.76a34 34 0 006.281.928c-1.424.29-2.615.778-4.434.721-1.425-.046-3-.225-4.716-.562h-.009c-.112-.019-.403-.131-.9-.281a13 13 0 00-.29-.094c-.291-.103-.525-.178-.704-.253-.018-.01-.028-.01-.046-.019-5.925-2.222-11.054-6.965-13.529-12.919-1.003-2.418-1.509-4.95-1.48-7.434.009-1.116.271-2.194.487-3.272zm-24.394 6.769c-.61 4.06-.6 8.222.628 12.225 2.531 8.344 7.819 15.628 14.503 20.962.14.122.281.235.375.32.019.009.038.027.056.037.6.468 1.228.947 1.885 1.406.01.01.028.019.047.028.3.206.6.403.928.61v.009c.018.01.187.14.506.328.45.29.9.562 1.275.797a.13.13 0 01.038.028c.168.094.28.16.328.178.337.206.712.431 1.162.666v.009c.178.084.356.178.534.263.291.15.572.3.854.45a.545.545 0 00.065.028 34.97 34.97 0 001.669.778c.31.16.44.206.525.234.544.244 1.06.44 1.528.628.234.094.46.178.638.253l-.01-.009c.497.188.985.347 1.444.497.14.056.337.112.553.178.666.225 1.35.431 2.044.61 9 2.371 17.578 1.153 24.825-2.25-4.406 3.946-10.8 7.387-20.55 7.603-2.906.065-6.103-.16-9.628-.75-.01-.01-.019-.01-.028-.01-.291-.047-.797-.234-1.528-.469-.207-.056-.385-.122-.572-.187a32.66 32.66 0 01-1.247-.431l-.019-.01c-.103-.037-.31-.112-.553-.197l-.056-.028c-.02-.01-.02-.01-.038-.01a52.97 52.97 0 01-1.237-.524h-.01c-.122-.056-.243-.113-.384-.16-.563-.262-1.097-.506-1.594-.759l-.084-.028a13.48 13.48 0 00-.806-.422l-.029-.019c-.018-.009-.028-.018-.047-.028-.112-.056-.234-.122-.234-.122-.056-.037-.112-.065-.16-.093a16.418 16.418 0 01-1.04-.591c-.066-.037-.122-.066-.187-.103 0 0-.057-.028-.085-.038a52.673 52.673 0 01-1.21-.759l-.027-.028c-.038-.019-.16-.103-.366-.234-.3-.197-.544-.357-.731-.488-.056-.047-.122-.084-.188-.131 0 0-.009 0-.018-.01a43.583 43.583 0 01-1.585-1.19.636.636 0 01-.075-.056c-.01-.01-.15-.122-.328-.263a34.781 34.781 0 01-1.537-1.284l-.02-.02c-.018-.018-.046-.037-.065-.055-.01-.01-.028-.02-.037-.029l-.038-.037a44.864 44.864 0 01-1.387-1.303l-.028-.028a11.782 11.782 0 01-.338-.347c-.01 0-.01-.01-.019-.01a25.805 25.805 0 01-1.34-1.425 1.77 1.77 0 00-.235-.225c-.918-.806-1.94-2.325-2.943-3.787-.01-.01-.01-.01-.01-.019a35.3 35.3 0 01-2.7-4.556v-.019c-4.022-7.94-4.556-17.55-1.06-25.584zm-25.847 6.262c-.534 4.191-.722 8.635-.31 13.238.938 10.378 4.098 21.047 9.413 28.36.366.524.74 1.021 1.125 1.527.14.188.235.3.263.338.037.056.075.112.122.16.3.374.609.759.928 1.162l.075.075c.056.065.159.206.328.403.431.506.881 1.031 1.35 1.547.018.019.037.047.056.065.44.488.9.975 1.369 1.453.122.122.253.263.412.422l.01.01.009.01c.375.374.722.721 1.05 1.04l.066.065c.075.066.187.188.384.375.01.01.019.01.028.02.478.45.975.918 1.49 1.368.038.047.085.084.132.122.197.15.15.169-.15-.16.066.066.131.132.197.188.469.422.947.834 1.472 1.256.187.15.337.272.45.366l.037.037c.403.328.788.619 1.144.9.028.028.056.047.075.066.16.103.31.225.478.347a.218.218 0 00.066.065c.422.3.834.61 1.284.928.094.066.235.179.413.31.009 0 .018.01.037.01.431.3.89.618 1.388.927.13.094.28.207.478.328.01.01.019.01.019.01.637.412 1.275.806 1.893 1.172.019.01.038.028.066.037.206.113.3.169.281.16.056.037.122.084.188.121.45.244.918.516 1.415.788l.01.01c.009 0 .018.009.037.009.31.178.59.319.825.44.366.197.76.404 1.172.6.01.01.038.02.038.028.018 0 .018 0 .028.01.14.066.3.16.553.262.468.235.947.46 1.444.685l.112.056c.01 0 .169.066.29.122.6.262 1.238.534 1.904.797 0 .01.01.01.01.01.215.084.346.13.374.14a.46.46 0 00.103.037 37.2 37.2 0 001.753.666l.32.112c.59.207 1.2.403 1.827.6.244.085.46.141.647.197.619.188 1.303.413 2.09.59 12.704 2.926 25.998 2.185 36.798-3.308C91.069 101.719 80.83 108 64.8 108c-3.703 0-7.715-.356-12.075-1.163-.431-.084-.984-.271-1.725-.496a.498.498 0 00-.112-.038c-.01 0-.16-.047-.338-.103l-.075-.019a65.62 65.62 0 01-1.79-.59c-.02-.01-.029-.01-.047-.019-.066-.019-.047-.01-.029-.01-.028-.009-.065-.028-.093-.037a81.404 81.404 0 01-1.678-.628c-.038-.019-.085-.028-.132-.047.02.009-.112-.047-.309-.122l-.038-.019a52.312 52.312 0 01-1.715-.722c-.113-.046-.263-.121-.281-.121-.01-.01-.02-.019-.029-.019a38.87 38.87 0 01-1.48-.694h-.02c-.037-.028-.178-.094-.271-.141-.216-.121-.244-.121-.32-.15l-.037-.009c-.3-.159-.6-.319-.89-.478a.355.355 0 00-.085-.047 17.995 17.995 0 01-.703-.366 44.496 44.496 0 01-1.294-.731l-.018-.009a8.087 8.087 0 00-.553-.31l-.047-.037a61.862 61.862 0 01-1.669-1.04c-.16-.113-.319-.207-.478-.31l-.01-.01h-.009a56.89 56.89 0 00-1.106-.75 3.257 3.257 0 00-.188-.14c-.093-.056-.206-.14-.337-.234l-.028-.029a40.321 40.321 0 01-1.144-.825l-.01-.009h-.009a39.53 39.53 0 00-.553-.431l-.01-.01a29.297 29.297 0 01-1.04-.806l-.01-.01c-.187-.15-.346-.271-.477-.384 0-.009-.01-.009-.01-.009-.431-.366-.853-.731-1.275-1.088a.605.605 0 00-.14-.112c-.038-.047-.085-.084-.122-.122-.431-.365-.872-.787-1.331-1.219l-.01-.018c-.16-.15-.3-.272-.422-.394l-.028-.028c-.3-.282-.61-.61-.956-.957a.406.406 0 01-.056-.065c-.132-.122-.244-.225-.357-.338-.421-.45-.834-.89-1.247-1.34l-.018-.019a.22.22 0 00-.066-.066 52.874 52.874 0 01-1.2-1.396.406.406 0 01-.056-.066 25.932 25.932 0 01-.29-.338l-.01-.009c0-.01-.01-.019-.019-.028-.29-.366-.6-.75-.919-1.135a6.883 6.883 0 01-.262-.365c-.028-.028-.047-.056-.066-.075-.31-.403-.619-.806-.928-1.238l-.019-.028c-.084-.122-.14-.187-.112-.15l-.056-.084c-.02-.028-.038-.047-.057-.075-.009-.01-.018-.028-.028-.038h-.01a62.24 62.24 0 01-.974-1.434.22.22 0 00-.056-.084c-.057-.085-.132-.207-.225-.357l-.029-.037c-.28-.46-.534-.834-.703-1.125a.845.845 0 00-.075-.122c-.075-.112-.168-.281-.309-.506l-.01-.019-.618-1.04v-.02c-.019-.018-.019-.028-.038-.046-.093-.188-.178-.347-.243-.478a1.4 1.4 0 00-.094-.16c-.103-.187-.14-.272-.056-.094a2.531 2.531 0 00-.113-.224c-.084-.15-.169-.291-.225-.441l-.056-.113c-.188-.356-.338-.637-.45-.862a.633.633 0 00-.028-.075c-6.253-12.61-7.135-32.044.281-44.063zm36.112 31.266l.029.01c.037.056.028.037.075.112-.028-.047-.066-.084-.103-.122zm-27.956 25.2l.038.037c.028.029.019.02.047.057l.009.01v.008c.019.01.028.038.038.057a1.54 1.54 0 00-.132-.169zm9.788 8.56l.084.046c-.169-.122-.16-.131 0 .019-.028-.028-.056-.047-.084-.066z" fill="#fff"></path>
  </symbol>
  <symbol fill="none" xmlns="http://www.w3.org/2000/svg" viewBox="0 0 120 120" id="wp">
    <path d="M103.177 31.462a7.571 7.571 0 00-.45-.825 8.885 8.885 0 00-1.194-1.464C91.599 16.02 75.84 7.5 58.125 7.5c-20.81 0-38.92 11.758-48.056 28.972-.034.064-.072.124-.098.192A54.01 54.01 0 003.75 61.875c0 23.584 15.098 43.701 36.131 51.218.073.028.143.054.218.073a54.141 54.141 0 0018.026 3.084c29.981 0 54.375-24.394 54.375-54.375a54.054 54.054 0 00-9.323-30.413zM58.125 11.25c14.023 0 26.728 5.734 35.906 14.976-.663.005-1.335.045-2.017.165-4.78.83-8.415 4.335-9.492 9.14-1.177 5.261.917 9.349 2.942 13.303 2.08 4.058 4.043 7.89 2.52 12.906L81.07 79.481 66.472 41.25h2.903a1.873 1.873 0 001.875-1.875 1.873 1.873 0 00-1.875-1.875h-26.25a1.873 1.873 0 00-1.875 1.875c0 1.037.838 1.875 1.875 1.875h3.714l6.754 17.327-8.149 20.902L30.847 41.25h4.778a1.873 1.873 0 001.875-1.875 1.873 1.873 0 00-1.875-1.875H13.777l-.001-.006c8.627-15.63 25.269-26.244 44.349-26.244zM7.5 61.875a50.33 50.33 0 014.037-19.8l25.684 65.888C19.71 99.99 7.5 82.337 7.5 61.875zM58.125 112.5c-4.883 0-9.6-.709-14.072-2.004L58.943 72.3l14.716 37.751a50.36 50.36 0 01-15.534 2.449zm2.565-46.044c-.006-.014-.017-.021-.02-.034-.059-.14-.156-.259-.246-.383-.055-.073-.092-.16-.156-.227-.071-.07-.17-.114-.253-.176-.116-.082-.225-.174-.356-.228-.011-.006-.019-.016-.032-.021-.09-.036-.182-.028-.272-.049-.137-.032-.268-.071-.41-.071-.143 0-.276.041-.413.073-.09.02-.18.013-.268.047-.012.005-.019.015-.032.02-.137.057-.251.15-.371.239-.08.058-.171.097-.24.165-.068.067-.107.159-.163.236-.089.122-.184.234-.24.373-.006.013-.017.02-.021.034L41.13 107.666 15.238 41.25h11.595l16.841 44.108c.008.016.021.03.027.046.022.055.058.098.084.148.079.149.167.284.278.402.048.052.1.097.155.144.128.109.266.197.418.268.04.019.066.053.107.068.019.007.04.004.06.011.199.071.407.116.62.116.21 0 .415-.043.612-.112.019-.006.04-.004.058-.011.041-.016.068-.05.107-.068.154-.07.292-.157.424-.268.054-.047.107-.09.155-.143.111-.116.201-.25.28-.397.028-.053.065-.098.088-.152.007-.017.019-.028.026-.045l10.14-26.014c.008-.017.013-.033.019-.05l.019-.05c.02-.052.013-.106.028-.158a1.86 1.86 0 00.092-.53c0-.125-.038-.241-.064-.363-.02-.101-.013-.203-.053-.302L50.865 41.25H62.46l16.841 44.108c.008.016.02.03.026.046.023.055.059.098.085.148.079.149.167.284.277.402.05.052.102.097.156.144.127.109.266.197.418.268.04.019.066.053.107.068.019.007.04.004.058.01.2.07.409.117.624.117.008 0 .015-.004.021-.004.098-.001.186-.035.28-.05.121-.02.245-.02.367-.068.015-.005.023-.016.037-.022.134-.055.244-.145.362-.229.083-.06.18-.103.252-.174.069-.07.112-.161.17-.242.087-.118.178-.23.235-.366.005-.015.018-.022.024-.037l8.726-22.403c2.014-6.602-.502-11.512-2.72-15.843-1.88-3.668-3.503-6.837-2.622-10.772.749-3.35 3.17-5.691 6.477-6.268 2.366-.411 4.6.202 6.052 1.565.383.512.75 1.037 1.112 1.564 2.79 5.989-2.696 23.317-7.003 33.242l-16.067 41.212-16.065-41.21zm20.353 40.537l15.244-39.109c.907-2.088 6.842-16.089 7.886-27.002a50.281 50.281 0 014.577 20.993c0 19.669-11.282 36.74-27.707 45.118z" fill="#fff"></path>
    <path d="M58.148 24.375a1.873 1.873 0 001.875-1.875v-3.75a1.873 1.873 0 00-1.875-1.875 1.873 1.873 0 00-1.875 1.875v3.75c0 1.037.838 1.875 1.875 1.875zm-11.275-.144a1.872 1.872 0 002.297 1.325 1.876 1.876 0 001.326-2.297l-.971-3.622a1.876 1.876 0 00-3.623.971l.971 3.623zm28.619 4.792a1.872 1.872 0 002.561-.686l1.875-3.246a1.875 1.875 0 00-3.248-1.875l-1.875 3.246a1.873 1.873 0 00.686 2.561zm-37.25-.688a1.874 1.874 0 002.562.686 1.872 1.872 0 00.686-2.561l-1.875-3.246a1.874 1.874 0 00-2.561-.686 1.872 1.872 0 00-.686 2.561l1.875 3.246zm28.883-2.779a1.874 1.874 0 002.297-1.326l.971-3.622c.269-1-.326-2.029-1.325-2.297a1.878 1.878 0 00-2.297 1.326l-.971 3.622a1.876 1.876 0 001.325 2.297z" fill="#fff"></path>
  </symbol>
  <symbol fill="none" xmlns="http://www.w3.org/2000/svg" viewBox="0 0 120 120" id="drupal">
    <path d="M52.8 4.8s.047 4.678 0 6.244c0 .037.263 3.093-1.734 8.475-1.332 3.394-3.938 5.644-5.691 6.272C24.788 32.044 12 48.28 12 68.166c0 25.93 21.534 47.034 48 47.034s48-21.103 48-47.034c0-21.488-15.29-39.094-38.053-43.857l-.066-.009C68.634 23.962 65.7 23.747 57.6 12c-1.228-1.781-4.8-7.2-4.8-7.2zm3.638 13.8c6.187 8.203 9.478 9.656 12.178 10.331l.384.094.14.028c20.382 4.322 34.06 20.025 34.06 39.113 0 23.287-19.378 42.234-43.2 42.234-23.822 0-43.2-18.947-43.2-42.234 0-17.691 11.484-32.175 29.972-37.791l.103-.028.112-.038c2.888-1.021 6.647-4.209 8.579-9.122a46.92 46.92 0 00.871-2.587zm-7.004 39c-9.89 0-18.234 6.628-18.234 15.834 0 4.21 1.34 8.11 5.147 10.641 3.422 2.269 7.762 2.606 10.912 2.316 7.603-.713 13.341-3.694 17.71-6.329 4.36-2.624 7.519-4.509 8.831-4.462.225.019 1.2.384 2.334 1.219 1.153.843 2.494 2.043 3.825 3.29 1.341 1.257 2.682 2.541 4.004 3.6 1.312 1.06 2.475 2.053 4.415 2.203 1.79.141 3.572-.243 4.96-1.2 1.387-.946 2.38-2.212 3.6-3.815 2.98-3.863 3.862-9.038 3.862-12.263 0-1.772-.309-3.975-1.537-6.028-1.238-2.053-3.704-3.806-6.863-3.806-1.922 0-3.544.76-5.26 1.669-1.715.91-3.468 2.044-5.193 3.16-1.716 1.105-3.403 2.174-4.856 2.934-1.463.759-2.71 1.115-3.17 1.115h-.055l-.057.01c-.609.018-1.8-.338-3.337-1.182-1.528-.844-3.366-2.1-5.447-3.403-4.144-2.616-9.319-5.503-15.59-5.503zm0 4.8c4.782 0 9.085 2.278 13.041 4.762 1.969 1.247 3.844 2.522 5.69 3.544.92.516 1.97.563 2.935.89-2.85.845-5.512 2.495-8.616 4.36-4.143 2.503-9.084 5.035-15.675 5.653-2.175.207-6.009-.337-7.8-1.528C36.403 78.347 36 76.912 36 73.434 36 67.088 41.578 62.4 49.434 62.4zM92.4 63.6c1.64 0 2.175.525 2.737 1.472.572.956.863 2.456.863 3.562 0 2.063-1.04 6.966-2.86 9.338-1.18 1.528-1.987 2.428-2.521 2.794-.535.356-.778.45-1.856.356h-.038c.272.028-.694-.29-1.762-1.153-1.06-.863-2.363-2.09-3.722-3.366-1.37-1.275-2.794-2.587-4.266-3.665-.816-.591-1.819-.779-2.728-1.172 1.012-.31 2.062-.432 3.056-.938 1.744-.91 3.516-2.053 5.25-3.169 1.725-1.115 3.403-2.193 4.838-2.953 1.425-.76 2.643-1.106 3.009-1.106zm-18.422 8.86c.01 0 .028.018.047.018h-.103c.019 0 .037-.01.056-.019zM73.453 84c-3.91 0-6.731 1.49-8.419 3.028-1.687 1.538-2.409 3.272-2.409 3.272a2.4 2.4 0 104.453 1.8s.244-.666 1.19-1.528c.948-.863 2.429-1.772 5.185-1.772 2.456 0 3.76.862 4.631 1.716.872.853 1.125 1.546 1.125 1.546a2.384 2.384 0 001.866 1.566 2.388 2.388 0 002.278-.872 2.398 2.398 0 00.338-2.418s-.666-1.707-2.25-3.254C79.847 85.537 77.156 84 73.453 84zm5.69 12.037c-.459.02-.9.16-1.284.422-2.54 1.707-6.14 4.069-12.346 3.403-5.063-.534-7.407-1.93-8.588-3.075a2.391 2.391 0 00-3.394.038 2.391 2.391 0 00.047 3.394c2.1 2.053 5.625 3.806 11.419 4.415 7.687.825 12.881-2.4 15.544-4.19a2.4 2.4 0 00-1.397-4.407z" fill="#fff"></path>
  </symbol>
  <symbol fill="none" xmlns="http://www.w3.org/2000/svg" viewBox="0 0 120 120" id="webpack">
    <path d="M60 60c-.304 0-.608-.073-.883-.22l-28.125-15A1.88 1.88 0 0130 43.126c0-.692.383-1.33.992-1.656l28.125-15a1.884 1.884 0 011.764 0l28.125 15a1.878 1.878 0 01.002 3.312l-28.125 15a1.89 1.89 0 01-.883.219zM35.86 43.125L60 55.999l24.14-12.874L60 30.251 35.86 43.125z" fill="#fff"></path>
    <path d="M31.875 50.625A1.874 1.874 0 0130 48.75v-4.51L10.352 33.522a1.877 1.877 0 01.01-3.299l48.75-26.25a1.875 1.875 0 011.777 3.302L15.186 31.886l17.587 9.593c.602.328.977.96.977 1.646v5.625c0 1.037-.84 1.875-1.875 1.875zm0 15A1.874 1.874 0 0130 63.75v-7.5a1.874 1.874 0 113.75 0v7.5c0 1.037-.84 1.875-1.875 1.875zM60 93.75c-.304 0-.606-.073-.883-.22l-28.125-15A1.88 1.88 0 0130 76.876V71.25a1.874 1.874 0 113.75 0v4.5l24.375 13V58.124a1.874 1.874 0 113.75 0v33.75A1.87 1.87 0 0160 93.75z" fill="#fff"></path>
    <path d="M60 118.125a1.87 1.87 0 01-1.875-1.875V91.875a1.874 1.874 0 113.75 0v21.19l47.839-26.579a1.869 1.869 0 012.55.73 1.873 1.873 0 01-.728 2.548l-50.625 28.125a1.886 1.886 0 01-.911.236zM88.125 78.75a1.874 1.874 0 01-1.875-1.875v-33.75c0-.71.401-1.36 1.037-1.678l19.207-9.604L61.875 8.71v19.415a1.874 1.874 0 11-3.75 0v-22.5a1.871 1.871 0 012.737-1.663l50.626 26.25a1.878 1.878 0 01-.025 3.343L90 44.284v32.591c0 1.037-.84 1.875-1.875 1.875zm-5.364 4.988c-.67 0-1.318-.36-1.655-.992l-1.765-3.31a1.874 1.874 0 113.308-1.766l1.764 3.31a1.874 1.874 0 01-1.652 2.758zm-7.814 4.168a1.88 1.88 0 01-1.657-.992l-1.765-3.311a1.878 1.878 0 01.773-2.54 1.88 1.88 0 012.539.773l1.764 3.312a1.878 1.878 0 01-1.654 2.758z" fill="#fff"></path>
    <path d="M67.133 92.07c-.67 0-1.318-.36-1.655-.992l-1.767-3.31a1.874 1.874 0 01.773-2.536 1.873 1.873 0 012.537.77l1.764 3.31a1.874 1.874 0 01-1.652 2.758zM110.625 90a1.88 1.88 0 01-.838-.197l-22.5-11.25a1.875 1.875 0 011.678-3.354l19.785 9.892V31.875a1.874 1.874 0 113.75 0v56.25a1.88 1.88 0 01-.889 1.596 1.88 1.88 0 01-.986.279zM11.25 90a1.874 1.874 0 01-1.875-1.875v-56.25a1.874 1.874 0 113.75 0v53.09l17.852-9.736a1.876 1.876 0 012.544.748 1.872 1.872 0 01-.748 2.542L12.148 89.77c-.28.154-.589.231-.898.231z" fill="#fff"></path>
    <path d="M59.998 118.125a1.87 1.87 0 01-.935-.251l-48.75-28.125a1.875 1.875 0 011.874-3.248l48.75 28.125a1.874 1.874 0 01-.939 3.499z" fill="#fff"></path>
  </symbol>
  <symbol fill="none" xmlns="http://www.w3.org/2000/svg" viewBox="0 0 120 120" id="gulp">
    <path d="M83.079 3.75a.547.547 0 00-.352.125L68.797 20.42l-2.842 9.77a175.69 175.69 0 00-5.97-.087c-14.48 0-26.235 1.53-26.235 3.435 0 4.54 52.463 4.54 52.463 0 0-1.407-6.284-2.593-15.337-3.157l2.249-8.042 13.03-15.674.022-.022c.293-.3-.279-1.216-1.209-2.014-.696-.6-1.428-.894-1.89-.879zM64.885 34.036l-.051.154c-.022.022-.022.043-.022.065 0 .279 1.135.513 2.52.513 1.384 0 2.526-.234 2.526-.513l.044-.175c.367.132.564.278.564.454 0 .454-1.406.827-3.156.805-1.7 0-3.113-.344-3.113-.798 0-.198.278-.373.688-.505zm21.035 1.289c-6.943 3.698-44.86 3.728-51.826.051l3.084 27.122c1.34-4.322 4.724-10.16 9.082-11.932 1.428-.586 2.878-.578 4.24.198 1.18.652 2.183 2.007 2.293 2.549.271 1.406-.454 1.963-1.018 1.963-.681 0-1.201-.989-1.545-1.575-.93-1.582-2.337-1.648-3.838-.608-1.568 1.077-2.93 2.893-3.882 4.475-1.157 1.905-2.139 4-2.725 6.094-.344 1.209-.652 3.15-.132 4.3.227.475.564.776 1.114.776 1.135 0 2.783-1.428 3.581-2.183 1.018-.974 2.337-2.483 2.835-3.457l1.186-3.347c.586-1.472 2.241-1.209 2.241 0 0 2.205-.835 2.937-2.263 7.5a573.559 573.559 0 00-1.728 5.581c-.161.6-.77 1.619-1.429 1.619-.27 0-.476-.088-.585-.264-.228-.3-.206-1.135-.184-1.355.044-.688 1.429-4.797 1.656-5.45-.454.477-.93.953-1.45 1.43-1.224 1.105-3.201 2.548-4.879 2.548-.768 0-1.267-.198-1.743-.52l1.722 17.204c.454 1.077 8.899 3.7 20.017 3.7 11.14 0 19.577-2.638 20.01-3.7l2.475-20.441c-1.296 1.128-2.79 2.512-4.446 3.2-1.223.498-3.948.82-3.948-1.237 0-1.129 2.066-3.194 3.267-4.644.322-.366 1.062-1.274 1.062-1.75 0-.63-1.355-.484-2.651.534-.725.586-1.414 1.37-1.978 2.102-.974 1.296-1.494 2.417-1.926 3.347-1.406 3.07-.93 1.86-2.066 4.754-1.135 2.878-.952 2.549-1.179 3.025-.205.41-.498.761-.908.974-.432.22-1.018.19-1.384-.066-.205-.132-.3-.41-.3-.799 0-.197.029-.388.073-.585.344-1.319 1.772-3.912 3.406-7.413.366-.798.227-.564.175-.498-1.406 1.297-2.475 1.927-3.266 2.27-1.319.565-2.952.565-3.289-.885-.022-.088-.022-.176-.044-.264-2.68 1.985-5.515 2.527-4.533-1.75-1.04 1.772-2.864 3.222-5.09 3.222-.931 0-1.612-.3-1.95-1.099-.52-1.186.294-3.222 1.04-5.148.39-.974.916-2.14 1.62-3.501.366-.733.952-1.172 1.72-.975.133.044.257.088.367.154.586.389.359.967.066 1.553-.864 1.619-1.611 2.813-2.11 4.497-.205.71-.46 1.948.337 1.948.542 0 1.062-.175 1.568-.52 1.04-.732 1.882-1.838 2.52-2.915.453-.776 1.003-1.794 1.274-2.658.11-.367.249-.71.41-1.04.249-.542.586-1.099 1.18-1.099.292 0 .541.11.724.322.388.476.3.967.095 1.487-.454 1.209-1.062 2.293-1.567 3.61-.293.755-.615 1.73-.615 2.528 0 .732.842.556 1.545.256.542-.234 1.092-.6 1.546-.967.27-1.054.197-.82 5.99-14.743.294-.71.843-1.018 1.385-1.018.271 0 .498.095.725.241.388.279.396.88.235 1.333-.162.41-.14.286-1.026 2.27-1.179 2.616-1.948 4.498-2.995 6.9-.432.996-1.744 4.087-1.97 4.82-.132.476-.3 1.252.226 1.252 1.224 0 4.38-2.835 5.245-3.677.043-.066.117-.088.205-.132.132-.41.27-.798.38-1.186.323-.82.616-1.78 1.209-2.446.183-.22.38-.345.608-.345.637 0 .952.257.952.865 0 .234-.154 1.105-.249 1.34.322-.322.652-.645 1.018-.967 3.406-3.003 5.83-1.472 5.83.044 0 1.597-2.014 3.823-3.127 5.054-.366.41-1.114 1.164-1.135 1.384 0 .278.205.396.498.396.454 0 1.45-.762 1.816-1.019 1.135-.842 2.673-2.138 3.765-3.046l3.361-29.568zM40.986 90.117l3.384 5.493 1.319 17.161c0 1.926 6.423 3.479 14.318 3.479 7.896 0 14.32-1.553 14.32-3.479l1.047-17.336 3.193-5.318c-8.987 3.611-28.228 3.736-37.58 0z" fill="#fff"></path>
  </symbol>
  <symbol fill="none" xmlns="http://www.w3.org/2000/svg" viewBox="0 0 120 120" id="sass">
    <g clip-path="url(#clip0)">
      <path d="M103.207 66.775c-4.19.02-7.82 1.03-10.865 2.53-1.115-2.22-2.24-4.175-2.43-5.63-.22-1.695-.476-2.71-.21-4.73.264-2.02 1.434-4.88 1.42-5.095-.016-.215-.26-1.245-2.68-1.26-2.42-.015-4.485.465-4.73 1.105-.246.64-.71 2.075-1 3.575-.425 2.19-4.826 10.01-7.326 14.1-.82-1.595-1.514-3.005-1.66-4.115-.22-1.695-.475-2.71-.21-4.73.265-2.02 1.435-4.88 1.42-5.095-.015-.215-.26-1.245-2.68-1.26-2.42-.015-4.484.465-4.73 1.105-.245.64-.504 2.13-1 3.575-.495 1.445-6.35 14.485-7.88 17.865-.78 1.72-1.46 3.105-1.94 4.05l-.005-.005-.08.17c-.41.805-.654 1.25-.654 1.25s.005.005.005.015c-.325.59-.675 1.14-.85 1.14-.12 0-.365-1.57.054-3.73.87-4.525 2.965-11.58 2.94-11.82-.01-.125.39-1.355-1.364-1.995-1.706-.625-2.316.415-2.47.42-.15.005-.265.37-.265.37s1.9-7.935-3.626-7.935c-3.454 0-8.24 3.78-10.6 7.205-1.49.81-4.674 2.55-8.05 4.405-1.3.715-2.62 1.44-3.88 2.135-.085-.095-.17-.19-.26-.285-6.7-7.15-19.09-12.205-18.56-21.815.19-3.495 1.405-12.695 23.8-23.855 18.346-9.14 33.035-6.625 35.57-1.05 3.626 7.965-7.85 22.77-26.9 24.905-7.26.815-11.08-2-12.03-3.045-1-1.105-1.15-1.155-1.525-.945-.61.335-.224 1.31 0 1.89.57 1.48 2.905 4.105 6.886 5.41 3.5 1.15 12.025 1.78 22.33-2.205 11.544-4.465 20.56-16.885 17.91-27.27-2.695-10.56-20.2-14.03-36.775-8.145-9.85 3.485-20.53 8.985-28.206 16.165C.978 42.68-.482 50.115.118 53.22 2.247 64.25 17.45 71.435 23.54 76.76l-.84.465C19.646 78.735 8.057 84.8 5.157 91.21c-3.29 7.27.525 12.485 3.045 13.19 7.82 2.175 15.845-1.74 20.155-8.17 4.31-6.43 3.785-14.805 1.805-18.625l-.075-.14c.79-.465 1.59-.94 2.39-1.41a170.34 170.34 0 014.4-2.485c-.74 2.03-1.285 4.46-1.566 7.975-.32 4.12 1.37 9.455 3.586 11.555.974.925 2.145.945 2.89.945 2.575 0 3.75-2.14 5.044-4.675 1.585-3.11 2.995-6.725 2.995-6.725s-1.764 9.775 3.05 9.775c1.756 0 3.52-2.275 4.306-3.435 0 .015.005.02.005.02l.135-.225c.18-.28.284-.455.284-.455l.01-.05c.706-1.225 2.27-4.015 4.615-8.62 3.03-5.95 5.935-13.4 5.935-13.4s.27 1.82 1.156 4.835c.52 1.77 1.63 3.73 2.5 5.61-.706.975-1.136 1.535-1.136 1.535s.005.01.01.03c-.56.745-1.19 1.55-1.85 2.335-2.39 2.85-5.24 6.1-5.62 7.04-.45 1.105-.344 1.92.526 2.575.634.48 1.764.55 2.944.475 2.15-.145 3.66-.68 4.41-1 1.166-.41 2.52-1.06 3.79-1.995 2.346-1.725 3.76-4.195 3.626-7.46-.076-1.8-.65-3.585-1.376-5.27.216-.305.425-.615.64-.93 3.7-5.405 6.57-11.35 6.57-11.35s.27 1.82 1.156 4.835c.45 1.525 1.33 3.19 2.13 4.82-3.48 2.825-5.635 6.11-6.385 8.265-1.386 3.985-.3 5.79 1.734 6.2.92.185 2.225-.235 3.2-.65a14.874 14.874 0 004.05-2.08c2.346-1.725 4.6-4.14 4.466-7.41-.06-1.49-.465-2.965-1.015-4.385 2.95-1.23 6.765-1.91 11.625-1.345 10.43 1.22 12.475 7.73 12.085 10.455-.39 2.725-2.58 4.225-3.31 4.675-.73.45-.955.61-.895.945.09.49.425.47 1.05.365.86-.145 5.475-2.215 5.675-7.25.245-6.395-5.875-13.41-16.715-13.35zm-80.39 27.1c-3.456 3.77-8.28 5.195-10.35 3.995-2.236-1.295-1.35-6.845 2.89-10.845 2.585-2.435 5.92-4.68 8.134-6.065.506-.305 1.245-.75 2.146-1.285.15-.085.235-.13.235-.13l-.006-.005.535-.32c1.535 5.69.04 10.7-3.584 14.655zm25.164-17.11c-1.205 2.935-3.72 10.44-5.255 10.035-1.315-.345-2.114-6.05-.264-11.665.934-2.825 2.924-6.205 4.1-7.515 1.885-2.11 3.96-2.8 4.465-1.945.65 1.095-2.29 9.255-3.046 11.09zm20.795 9.925c-.51.265-.98.435-1.194.305-.16-.095.21-.445.21-.445s2.6-2.8 3.624-4.07c.596-.74 1.285-1.62 2.04-2.605.005.1.01.195.01.29-.004 3.35-3.244 5.615-4.69 6.525zm16.02-3.655c-.38-.27-.315-1.145.935-3.87.49-1.07 1.61-2.87 3.56-4.595.225.71.365 1.385.36 2.02-.025 4.22-3.034 5.795-4.855 6.445z" fill="#fff"></path>
    </g>
    <defs>
      <clipPath id="clip0">
        <path fill="#fff" d="M0 0h120v120H0z"></path>
      </clipPath>
    </defs>
  </symbol>
  <symbol fill="none" xmlns="http://www.w3.org/2000/svg" viewBox="0 0 120 120" id="js">
    <path d="M23.58 11.25c-6.773 0-12.33 5.557-12.33 12.33v72.84c0 6.773 5.557 12.33 12.33 12.33h72.84c6.773 0 12.33-5.555 12.33-12.327V23.58c0-6.773-5.557-12.33-12.33-12.33H23.58zm0 3.75h72.84c4.728 0 8.58 3.852 8.58 8.58v72.843c0 4.726-3.852 8.577-8.58 8.577H23.58c-4.727 0-8.58-3.853-8.58-8.58V23.58c0-4.727 3.853-8.58 8.58-8.58zm-1.08 7.5c-1.035 0-1.875.84-1.875 1.875v3.75a1.876 1.876 0 003.75 0v-3.75c0-1.035-.84-1.875-1.875-1.875zm9.375 0c-1.035 0-1.875.84-1.875 1.875v3.75a1.876 1.876 0 003.75 0v-3.75c0-1.035-.84-1.875-1.875-1.875zm9.375 0c-1.035 0-1.875.84-1.875 1.875v3.75a1.876 1.876 0 003.75 0v-3.75c0-1.035-.84-1.875-1.875-1.875zm9.375 0c-1.035 0-1.875.84-1.875 1.875v3.75a1.876 1.876 0 003.75 0v-3.75c0-1.035-.84-1.875-1.875-1.875zm9.375 0c-1.035 0-1.875.84-1.875 1.875v3.75a1.876 1.876 0 003.75 0v-3.75c0-1.035-.84-1.875-1.875-1.875zm9.375 0c-1.035 0-1.875.84-1.875 1.875v3.75a1.876 1.876 0 003.75 0v-3.75c0-1.035-.84-1.875-1.875-1.875zm9.375 0c-1.035 0-1.875.84-1.875 1.875v3.75a1.876 1.876 0 003.75 0v-3.75c0-1.035-.84-1.875-1.875-1.875zm9.375 0c-1.035 0-1.875.84-1.875 1.875v3.75a1.876 1.876 0 003.75 0v-3.75c0-1.035-.84-1.875-1.875-1.875zm9.375 0c-1.035 0-1.875.84-1.875 1.875v3.75a1.876 1.876 0 003.75 0v-3.75c0-1.035-.84-1.875-1.875-1.875zM54.998 56.47a1.875 1.875 0 00-1.875 1.875v27.154c0 1.845-.367 2.615-.63 2.893-.264.279-.72.47-1.868.47-2.133 0-3.495-1.193-4.622-3.165a1.875 1.875 0 00-2.589-.681l-6.877 4.112a1.875 1.875 0 00-.729 2.417c2.28 4.767 7.74 9.705 15.33 9.705 4.07 0 7.74-1.082 10.39-3.545 2.648-2.463 4.097-6.204 4.097-10.891v-28.47a1.875 1.875 0 00-1.875-1.874h-8.752zm30.553 0c-8.012 0-13.675 5.651-13.675 12.762 0 3.714 1.141 6.727 3.117 9.002 1.975 2.274 4.657 3.81 7.686 5.13l2.01.883c1.802.805 3.039 1.45 3.63 1.974.594.526.733.764.733 1.776 0 .715-.193 1.118-.627 1.483-.433.365-1.24.707-2.589.707-1.552 0-2.471-.456-3.384-1.267-.912-.812-1.736-2.053-2.581-3.465a1.876 1.876 0 00-2.666-.586l-6.336 4.318a1.875 1.875 0 00-.622 2.38c2.582 5.22 7.652 9.683 15.78 9.683 4.158 0 7.928-1.097 10.726-3.38 2.797-2.283 4.495-5.788 4.493-9.976 0-3.79-1.157-6.86-3.277-9.188-2.12-2.327-5.037-3.93-8.555-5.471h-.004l-2.006-.879-.004-.004c-1.678-.744-2.763-1.35-3.252-1.805-.49-.456-.582-.621-.582-1.48 0-1.064.431-1.659 1.98-1.659.89 0 1.396.157 1.894.495.499.338 1.044.95 1.648 2.058a1.875 1.875 0 002.674.67l6.273-4.12a1.876 1.876 0 00.611-2.479c-2.912-5.242-7.528-7.562-13.096-7.562zm-28.678 3.75h5.002v26.594c0 3.945-1.114 6.484-2.9 8.145-1.787 1.66-4.423 2.541-7.837 2.541-5.176 0-8.77-3.122-10.822-6.262l3.724-2.227c1.585 1.957 3.67 3.6 6.585 3.6 1.63 0 3.36-.342 4.589-1.64 1.229-1.3 1.659-3.148 1.659-5.472V60.22zm28.678 0c3.992 0 6.47 1.374 8.631 4.336l-3.116 2.05c-.493-.618-.896-1.383-1.524-1.809-1.17-.794-2.568-1.139-3.995-1.139-3.172 0-5.731 2.476-5.731 5.41 0 1.614.657 3.18 1.78 4.225 1.122 1.045 2.516 1.704 4.291 2.49a.127.127 0 01.004.004l2.014.883c3.328 1.458 5.768 2.89 7.291 4.563 1.524 1.672 2.3 3.574 2.3 6.665.002 3.226-1.149 5.462-3.112 7.064-1.964 1.603-4.864 2.538-8.357 2.538-6.062 0-9.376-2.623-11.562-6.226l3.391-2.31c.637.952 1.184 1.937 2.106 2.757a8.745 8.745 0 005.874 2.216c1.989 0 3.729-.512 5.006-1.59 1.278-1.077 1.96-2.706 1.96-4.35 0-1.814-.765-3.49-1.996-4.582-1.231-1.09-2.738-1.767-4.6-2.6a1.436 1.436 0 01-.01-.003l-2.015-.883-.004-.004c-2.783-1.212-4.94-2.53-6.35-4.152-1.41-1.623-2.2-3.547-2.2-6.54 0-5.25 3.547-9.013 9.924-9.013z" fill="#fff"></path>
  </symbol>
  <symbol fill="none" xmlns="http://www.w3.org/2000/svg" viewBox="0 0 120 120" id="html">
    <path d="M13.162 7.5c-3.355 0-6.026 2.98-5.621 6.31l10.25 84.833c.454 3.754 3.138 6.877 6.786 7.913l32.878 9.335a9.487 9.487 0 005.076.029l34.578-9.367c3.765-1.02 6.528-4.257 6.917-8.13l8.529-84.727c.333-3.295-2.321-6.196-5.632-6.196H13.162zm0 3.75h93.761c1.169 0 2.015.938 1.901 2.073l-.271 2.691a1.876 1.876 0 00-3.553.861v3.75a1.878 1.878 0 00.987 1.676c.616.33 1.365.292 1.943-.101l-7.635 75.846v.003a5.642 5.642 0 01-4.164 4.886h-.004l-34.578 9.367a5.73 5.73 0 01-3.068-.018l-32.879-9.335a5.65 5.65 0 01-4.087-4.757l-9.162-75.835A1.874 1.874 0 0015 20.625v-3.75a1.873 1.873 0 00-1.904-1.9 1.874 1.874 0 00-1.534.842l-.297-2.458v-.003c-.14-1.144.714-2.106 1.897-2.106zm9.31 3.724a1.875 1.875 0 00-1.847 1.901v3.75a1.876 1.876 0 103.75 0v-3.75a1.873 1.873 0 00-1.904-1.9zm9.374 0A1.875 1.875 0 0030 16.875v3.75a1.876 1.876 0 103.75 0v-3.75a1.873 1.873 0 00-1.904-1.9zm9.375 0a1.875 1.875 0 00-1.846 1.901v3.75a1.876 1.876 0 103.75 0v-3.75a1.873 1.873 0 00-1.904-1.9zm9.375 0a1.875 1.875 0 00-1.846 1.901v3.75a1.876 1.876 0 103.75 0v-3.75a1.873 1.873 0 00-1.904-1.9zm9.375 0a1.875 1.875 0 00-1.846 1.901v3.75a1.876 1.876 0 103.75 0v-3.75a1.873 1.873 0 00-1.904-1.9zm9.375 0a1.875 1.875 0 00-1.846 1.901v3.75a1.876 1.876 0 103.75 0v-3.75a1.873 1.873 0 00-1.904-1.9zm9.375 0a1.875 1.875 0 00-1.846 1.901v3.75a1.876 1.876 0 103.75 0v-3.75a1.873 1.873 0 00-1.904-1.9zm9.375 0a1.875 1.875 0 00-1.846 1.901v3.75a1.876 1.876 0 103.75 0v-3.75a1.873 1.873 0 00-1.904-1.9zm9.375 0a1.875 1.875 0 00-1.846 1.901v3.75a1.876 1.876 0 103.75 0v-3.75a1.873 1.873 0 00-1.904-1.9zM31.875 30c-2.267 0-4.056 2.091-3.702 4.332l4.724 30.004a3.773 3.773 0 003.706 3.164h36.204L71.51 78.486l-11.305 3.446-9.88-3.347-.656-4.167v-.004a3.769 3.769 0 00-3.702-3.164h-7.591c-2.27 0-4.057 2.092-3.706 4.332v.004l1.9 12.07a3.73 3.73 0 002.487 2.948l19.786 6.702h.004a3.69 3.69 0 002.252.033l21.834-6.65a3.731 3.731 0 002.61-3.132l3.644-30.864c.263-2.198-1.506-4.193-3.72-4.193H46.22L45.037 45h42.202a3.774 3.774 0 003.724-3.31v-.004l.89-7.533c.258-2.18-1.5-4.153-3.695-4.153H31.875zm0 3.75h56.25l-.886 7.5H45.037c-2.269 0-4.057 2.095-3.702 4.336l1.179 7.5a3.773 3.773 0 003.706 3.164h39.243l-3.64 30.853-21.797 6.643-19.753-6.69-1.897-12.052V75h7.591l.831 5.288c.11.689.592 1.26 1.253 1.483l11.524 3.904c.371.126.772.132 1.147.018l13.051-3.977a1.874 1.874 0 001.319-1.574l1.44-12.203c.258-2.197-1.51-4.189-3.725-4.189H36.603l-4.728-30zm46.886 64.237a1.932 1.932 0 00-.501.073l-3.75 1.015a1.874 1.874 0 10.981 3.618l3.75-1.015a1.875 1.875 0 00-.48-3.69zm-28.18 2.388a1.876 1.876 0 00-.468 3.684l9.931 2.82 7.947-2.154a1.873 1.873 0 00.869-3.165 1.873 1.873 0 00-1.85-.453l-6.94 1.882-8.932-2.537a1.87 1.87 0 00-.557-.077z" fill="#fff"></path>
  </symbol>
  <symbol fill="none" xmlns="http://www.w3.org/2000/svg" viewBox="0 0 120 120" id="css">
    <path d="M13.162 7.5c-3.355 0-6.026 2.98-5.621 6.31l10.25 84.833c.454 3.754 3.138 6.877 6.786 7.913l32.878 9.335a9.487 9.487 0 005.076.029l34.578-9.367c3.765-1.02 6.529-4.257 6.917-8.13l8.529-84.727c.332-3.294-2.32-6.196-5.632-6.196H13.162zm0 3.75h93.761c1.169 0 2.015.939 1.901 2.073l-.271 2.691a1.88 1.88 0 00-1.707-1.04A1.874 1.874 0 00105 16.875v3.75a1.88 1.88 0 00.988 1.676 1.873 1.873 0 001.942-.101l-7.635 75.846v.003a5.643 5.643 0 01-4.164 4.886h-.004l-34.578 9.367a5.74 5.74 0 01-3.068-.018l-32.879-9.335a5.651 5.651 0 01-4.087-4.757l-9.162-75.835A1.876 1.876 0 0015 20.625v-3.75a1.874 1.874 0 00-3.438-1.058l-.297-2.458v-.003c-.139-1.144.714-2.106 1.897-2.106zm9.31 3.724a1.875 1.875 0 00-1.847 1.901v3.75a1.876 1.876 0 103.75 0v-3.75a1.874 1.874 0 00-1.904-1.9zm9.374 0A1.875 1.875 0 0030 16.875v3.75a1.876 1.876 0 103.75 0v-3.75a1.874 1.874 0 00-1.904-1.9zm9.375 0a1.875 1.875 0 00-1.846 1.901v3.75a1.876 1.876 0 103.75 0v-3.75a1.874 1.874 0 00-1.904-1.9zm9.375 0a1.875 1.875 0 00-1.846 1.901v3.75a1.876 1.876 0 103.75 0v-3.75a1.874 1.874 0 00-1.904-1.9zm9.375 0a1.875 1.875 0 00-1.846 1.901v3.75a1.876 1.876 0 103.75 0v-3.75a1.874 1.874 0 00-1.904-1.9zm9.375 0a1.875 1.875 0 00-1.846 1.901v3.75a1.874 1.874 0 103.75 0v-3.75a1.874 1.874 0 00-1.904-1.9zm9.375 0a1.875 1.875 0 00-1.846 1.901v3.75a1.874 1.874 0 103.75 0v-3.75a1.874 1.874 0 00-1.904-1.9zm9.375 0a1.875 1.875 0 00-1.846 1.901v3.75a1.874 1.874 0 103.75 0v-3.75a1.874 1.874 0 00-1.904-1.9zm9.375 0a1.875 1.875 0 00-1.846 1.901v3.75a1.874 1.874 0 103.75 0v-3.75a1.874 1.874 0 00-1.904-1.9zM31.875 30c-2.267 0-4.056 2.092-3.702 4.332l1.432 9.086A1.876 1.876 0 0031.455 45h44.01l-.886 7.5H46.875A1.875 1.875 0 0045 54.375v11.25a1.875 1.875 0 001.875 1.875h25.932L71.51 78.486l-11.305 3.446-9.88-3.347-.655-4.167v-.004a3.77 3.77 0 00-3.703-3.164h-7.591c-2.27 0-4.057 2.092-3.706 4.332v.004l1.9 12.07a3.732 3.732 0 002.487 2.948l19.786 6.702h.004a3.682 3.682 0 002.252.033l21.834-6.65a3.731 3.731 0 002.61-3.132l5.42-45.864.89-7.536c.258-2.18-1.5-4.157-3.695-4.157H31.875zm0 3.75h56.25l-.886 7.5-5.416 45.853-21.797 6.643-19.753-6.69-1.897-12.052V75h7.591l.831 5.288a1.875 1.875 0 001.253 1.483l11.525 3.904c.37.126.771.132 1.146.018l13.052-3.977a1.875 1.875 0 001.318-1.574l1.688-14.297a1.874 1.874 0 00-1.864-2.095H48.75v-7.5h27.496a1.876 1.876 0 001.864-1.655l1.329-11.25a1.873 1.873 0 00-1.864-2.095H33.058l-1.183-7.5zm46.886 64.237c-.17.002-.338.026-.501.073l-3.75 1.015a1.876 1.876 0 10.981 3.618l3.75-1.015a1.874 1.874 0 00-.48-3.69zm-28.18 2.388a1.875 1.875 0 00-.468 3.684l9.931 2.82 7.947-2.154a1.862 1.862 0 001.174-.867 1.879 1.879 0 00-.138-2.112 1.871 1.871 0 00-2.017-.639l-6.94 1.883-8.932-2.538a1.841 1.841 0 00-.557-.077z" fill="#fff"></path>
  </symbol>
</svg>